<svg width="25" height="25" viewBox="0 0 25 25" fill="none" xmlns="http://www.w3.org/2000/svg">
<g id="Frame">
<path id="Vector" d="M12.5 15.9115C12.3795 15.9115 12.2673 15.8923 12.1635 15.8538C12.0597 15.8154 11.9609 15.7494 11.8672 15.6558L8.75775 12.5463C8.60908 12.3974 8.53567 12.2233 8.5375 12.024C8.5395 11.8247 8.61292 11.6474 8.75775 11.4922C8.91292 11.3373 9.09108 11.2572 9.29225 11.252C9.49358 11.2468 9.67183 11.3218 9.827 11.477L11.75 13.4V5.75C11.75 5.53717 11.8218 5.359 11.9655 5.2155C12.109 5.07183 12.2872 5 12.5 5C12.7128 5 12.891 5.07183 13.0345 5.2155C13.1782 5.359 13.25 5.53717 13.25 5.75V13.4L15.173 11.477C15.3218 11.3283 15.4984 11.2549 15.7028 11.2568C15.9072 11.2588 16.0871 11.3373 16.2423 11.4922C16.3871 11.6474 16.4621 11.8231 16.4672 12.0192C16.4724 12.2154 16.3974 12.3911 16.2423 12.5463L13.1328 15.6558C13.0391 15.7494 12.9403 15.8154 12.8365 15.8538C12.7327 15.8923 12.6205 15.9115 12.5 15.9115ZM6.80775 20C6.30258 20 5.875 19.825 5.525 19.475C5.175 19.125 5 18.6974 5 18.1923V16.2308C5 16.0179 5.07183 15.8398 5.2155 15.6962C5.359 15.5526 5.53717 15.4808 5.75 15.4808C5.96283 15.4808 6.141 15.5526 6.2845 15.6962C6.42817 15.8398 6.5 16.0179 6.5 16.2308V18.1923C6.5 18.2692 6.53208 18.3398 6.59625 18.4038C6.66025 18.4679 6.73075 18.5 6.80775 18.5H18.1923C18.2692 18.5 18.3398 18.4679 18.4038 18.4038C18.4679 18.3398 18.5 18.2692 18.5 18.1923V16.2308C18.5 16.0179 18.5718 15.8398 18.7155 15.6962C18.859 15.5526 19.0372 15.4808 19.25 15.4808C19.4628 15.4808 19.641 15.5526 19.7845 15.6962C19.9282 15.8398 20 16.0179 20 16.2308V18.1923C20 18.6974 19.825 19.125 19.475 19.475C19.125 19.825 18.6974 20 18.1923 20H6.80775Z" fill="white"/>
</g>
</svg>
