<svg width="18" height="18" viewBox="0 0 18 18" fill="none" xmlns="http://www.w3.org/2000/svg">
<g id="Icon">
<path id="Vector" fill-rule="evenodd" clip-rule="evenodd" d="M4.69859 1.04724C2.82578 1.34805 1.3381 2.85025 1.04792 4.73356C0.984027 5.14831 0.984027 12.8482 1.04792 13.2629C1.34038 15.161 2.83544 16.659 4.72977 16.952C5.14371 17.016 12.8286 17.016 13.2425 16.952C14.37 16.7776 15.4123 16.1505 16.1024 15.2313C16.5151 14.6817 16.8598 13.8528 16.9246 13.2544C16.9363 13.1467 16.958 13.0509 16.9729 13.0417C16.988 13.0324 17 11.2267 17 8.96332C17 6.65733 16.9882 4.90899 16.9728 4.91858C16.9578 4.92783 16.9361 4.84781 16.9245 4.74077C16.8783 4.31402 16.6594 3.68013 16.4044 3.23457C15.7264 2.04983 14.5719 1.25016 13.2425 1.04452C12.848 0.983501 5.08001 0.985969 4.69859 1.04724ZM13.2893 3.07551C12.7118 3.23651 12.3225 3.74043 12.3193 4.33108C12.3171 4.72362 12.4308 5.00497 12.7012 5.27591C12.9717 5.54685 13.2524 5.66079 13.6442 5.65864C14.0158 5.65657 14.3382 5.51398 14.5892 5.24067C15.2431 4.52879 14.9359 3.37835 14.0159 3.09367C13.7874 3.02293 13.5033 3.01584 13.2893 3.07551ZM13.3893 4.04558C13.1974 4.20736 13.1826 4.44996 13.3541 4.6218C13.6054 4.87362 14.0065 4.70138 14.0065 4.34167C14.0065 4.20845 13.9924 4.17474 13.8963 4.07848C13.8003 3.98222 13.7666 3.9681 13.6337 3.9681C13.5168 3.9681 13.4597 3.98622 13.3893 4.04558ZM8.34691 4.67113C7.38977 4.82376 6.57451 5.23689 5.90331 5.90939C4.19406 7.62199 4.19406 10.3745 5.90331 12.0871C7.25825 13.4447 9.31887 13.761 11.009 12.8708C12.8057 11.9245 13.7168 9.87112 13.2124 7.90474C12.9084 6.71978 12.1002 5.70041 11.009 5.12569C10.2032 4.70125 9.21556 4.53263 8.34691 4.67113ZM1.01861 8.99825C1.01861 11.2407 1.02232 12.1581 1.02687 11.0369C1.03139 9.91562 1.03139 8.08086 1.02687 6.95963C1.02232 5.83838 1.01861 6.75577 1.01861 8.99825ZM8.48723 5.58037C7.04041 5.84391 5.98944 6.81426 5.63147 8.21717C5.58373 8.40429 5.57169 8.56166 5.57169 8.99825C5.57169 9.43484 5.58373 9.59222 5.63147 9.77933C5.9634 11.0802 6.90829 12.0269 8.20659 12.3595C8.56532 12.4514 9.4634 12.4443 9.82283 12.3467C11.0615 12.0104 11.9911 11.0791 12.3283 9.83657C12.3898 9.60996 12.399 9.50142 12.399 8.99825C12.399 8.49508 12.3898 8.38654 12.3283 8.15994C12.0315 7.06627 11.2458 6.17556 10.237 5.78889C9.79717 5.6203 9.6219 5.58821 9.0797 5.5769C8.79672 5.571 8.53011 5.57259 8.48723 5.58037Z" fill="white"/>
</g>
</svg>
