<svg width="18" height="18" viewBox="0 0 18 18" fill="none" xmlns="http://www.w3.org/2000/svg">
<g id="Icon">
<path id="Vector" fill-rule="evenodd" clip-rule="evenodd" d="M3.64134 1.70394C2.91789 1.93524 2.45312 2.57459 2.45312 3.33846C2.45312 3.83399 2.61171 4.2128 2.96862 4.56971C3.5218 5.12289 4.40335 5.21809 5.06154 4.79573C5.2767 4.65767 5.5615 4.34611 5.6721 4.12783C6.1503 3.1842 5.68184 2.04457 4.67788 1.70911C4.39516 1.61465 3.92786 1.61233 3.64134 1.70394ZM12.7393 6.21013C11.8298 6.34278 11.0008 6.83271 10.5655 7.49481C10.4847 7.61761 10.4062 7.71809 10.391 7.71809C10.3758 7.71809 10.3633 7.42541 10.3633 7.0677V6.41731H8.95703H7.55078V11.1986V15.9798H9.02734H10.5039V13.328C10.5039 11.6322 10.5175 10.5772 10.5417 10.4013C10.6498 9.61417 10.9918 9.09562 11.5497 8.87297C11.7276 8.80203 11.8136 8.79215 12.2625 8.7913C12.7685 8.79035 12.775 8.79134 13.0057 8.90496C13.2824 9.04116 13.4628 9.22935 13.6022 9.52737C13.8243 10.002 13.8209 9.9484 13.8344 13.1058L13.8468 15.9798H15.3237H16.8006L16.7864 12.7191C16.7741 9.88958 16.7646 9.41438 16.7142 9.12613C16.4569 7.65291 15.8831 6.82406 14.8516 6.43583C14.2623 6.214 13.3679 6.11844 12.7393 6.21013ZM2.66406 11.1986V15.9798H4.14063H5.61719V11.1986V6.41731H4.14063H2.66406V11.1986Z" fill="white"/>
</g>
</svg>
