<svg width="18" height="18" viewBox="0 0 18 18" fill="none" xmlns="http://www.w3.org/2000/svg">
<g id="ri:twitter-fill">
<path id="Vector" d="M16.6598 4.24121C16.0871 4.49431 15.4799 4.66064 14.8583 4.73471C15.5128 4.3423 16.0027 3.7256 16.2368 2.99921C15.6218 3.36521 14.9475 3.62171 14.2455 3.76046C13.7735 3.2554 13.1478 2.92043 12.4657 2.80765C11.7837 2.69487 11.0835 2.81058 10.474 3.1368C9.86445 3.46302 9.37979 3.98148 9.09534 4.61156C8.81088 5.24164 8.74256 5.94805 8.901 6.62096C7.65367 6.55874 6.43338 6.23478 5.31943 5.67011C4.20548 5.10545 3.2228 4.31273 2.43525 3.34346C2.15654 3.82233 2.01004 4.36664 2.01075 4.92071C2.01075 6.00821 2.565 6.96896 3.40575 7.53146C2.9079 7.51487 2.42108 7.38044 1.98525 7.13921V7.17746C1.98523 7.90187 2.23578 8.60398 2.6944 9.16472C3.15302 9.72545 3.79149 10.1103 4.5015 10.254C4.03925 10.3795 3.55446 10.398 3.084 10.308C3.28419 10.9315 3.67441 11.4768 4.2 11.8675C4.72559 12.2582 5.36022 12.4747 6.015 12.4867C5.36415 12.9976 4.61903 13.3752 3.82221 13.5981C3.02539 13.821 2.19246 13.8848 1.371 13.7857C2.80478 14.7078 4.47382 15.1973 6.1785 15.1957C11.949 15.1957 15.1035 10.416 15.1035 6.27071C15.1035 6.13521 15.1005 5.99996 15.0945 5.86496C15.7083 5.42119 16.2381 4.8716 16.659 4.24196" fill="white"/>
</g>
</svg>
